<svg width="340" height="340" xmlns="http://www.w3.org/2000/svg">

 <g>
  <title>background</title>
  <rect fill="none" id="canvas_background" height="402" width="582" y="-1" x="-1"/>
 </g>
 <g>
  <title>Layer 1</title>
  <g id="XMLID_18_">
   <polygon fill="#DEDDE0" points="170,80 61.429,80 80,340 170,340  " id="XMLID_169_"/>
   <!--逆时针-->
   <polygon fill="#ACABB1" points="170,80 170,340 260,340 278.571,80  " id="XMLID_221_"/>
   <polygon fill="#50412E" points="278.571,80 300,80 300,40 260,40 260,0 80,0 80,40 40,40 40,80 61.429,80   170,80  " id="XMLID_225_"/>
  </g>
  <path stroke="#ff7f00" id="svg_6" d="m100.002488,162.744295l149.000003,0l0,110.000008l-149.000003,0l0,-110.000008z" fill-opacity="null" stroke-opacity="null" stroke-width="10" fill="none"/>
  <text xml:space="preserve" text-anchor="start" font-family="Helvetica, Arial, sans-serif" font-size="99" id="svg_7" y="250.0375" x="108.5" fill-opacity="null" stroke-opacity="null" stroke-width="0" stroke="#ff7f00" fill="#000000">L</text>
  <text xml:space="preserve" text-anchor="start" font-family="Helvetica, Arial, sans-serif" font-size="99" id="svg_8" y="254.0375" x="172.5" fill-opacity="null" stroke-opacity="null" stroke-width="0" stroke="#ff7f00" fill="#000000">C</text>
  <path transform="rotate(-23.90100860595703 99.46749877929689,117.06956481933594) " id="svg_9" d="m87.967499,114.590874l8.785281,0l2.714719,-8.021306l2.714721,8.021306l8.785279,0l-7.107428,4.957383l2.71486,8.021306l-7.107431,-4.957518l-7.10743,4.957518l2.714861,-8.021306l-7.107431,-4.957383z" fill-opacity="null" stroke-width="10" stroke="#ff5656" fill="none"/>
 </g>
</svg>